<?xml version="1.0" encoding="utf-8"?><svg version="1.1" id="Layer_1" xmlns="http://www.w3.org/2000/svg" xmlns:xlink="http://www.w3.org/1999/xlink" x="0px" y="0px" viewBox="0 0 116.27 122.88" style="enable-background:new 0 0 116.27 122.88" xml:space="preserve"><g><path d="M106.84,122.88c10.73-42.93,5.88-64.43-0.43-80.95c-18.57,6.86-32.48,18.27-44.02,33.35c0.13,0.13,0.23,0.29,0.29,0.47 c2.21,6.24,6.3,8.9,11.79,9.31c5.82,0.43,13.25-1.54,21.72-4.49c0.68-0.24,1.42,0.12,1.66,0.8c0.24,0.68-0.12,1.42-0.8,1.66 c-8.78,3.06-16.53,5.1-22.77,4.63c-5.4-0.4-9.65-2.61-12.45-7.49c-1.22,8.09-1.42,17.86-0.87,28.18c0.26,4.76,0.67,9.64,1.23,14.52 h-2.63c-0.55-4.83-0.96-9.66-1.21-14.38c-0.07-1.35-0.13-2.69-0.18-4.02c-0.32,5.89-1.02,12.14-1.87,18.4h-2.64 c2.07-15.24,3.3-30.31,0.27-40.17c-2.8,4.5-6.93,6.55-12.12,6.94c-6.24,0.47-13.99-1.57-22.77-4.63c-0.68-0.24-1.04-0.98-0.8-1.66 c0.24-0.68,0.98-1.04,1.66-0.8c8.48,2.95,15.9,4.93,21.72,4.49c5.5-0.41,9.58-3.07,11.79-9.31c0.06-0.17,0.15-0.32,0.27-0.45 C43.08,61.17,28.36,49.61,9.67,42.46C3.45,58.91-1.18,80.41,9.44,122.88H6.25c-12.52-50.61-3.61-71.92,4.02-90.15 C14.58,22.44,18.46,13.16,17.6,0h3.09c0.85,13.77-3.14,23.33-7.57,33.92l-0.31,0.75c32.29,9.87,62.39,9.31,90.62-0.08l-0.28-0.67 C98.72,23.33,94.72,13.77,95.58,0h3.09c-0.86,13.16,3.03,22.44,7.33,32.73c7.63,18.23,16.54,39.54,4.02,90.15H106.84L106.84,122.88 z M56.03,80.69c1.16,3.27,1.83,7.11,2.14,11.34c0.17-4.47,0.54-8.69,1.13-12.55c-0.28,0.4-0.56,0.8-0.84,1.2H56.03L56.03,80.69z M60.3,78.08c0.15-0.04,0.31-0.05,0.47-0.04c-0.05-0.13-0.11-0.26-0.16-0.39C60.51,77.8,60.41,77.94,60.3,78.08L60.3,78.08z"/></g></svg>