<?xml version="1.0" standalone="no"?>
<!DOCTYPE svg PUBLIC "-//W3C//DTD SVG 20010904//EN"
 "http://www.w3.org/TR/2001/REC-SVG-20010904/DTD/svg10.dtd">
<svg version="1.0" xmlns="http://www.w3.org/2000/svg"
 width="982.000000pt" height="1158.000000pt" viewBox="0 0 982.000000 1158.000000"
 preserveAspectRatio="xMidYMid meet">

<g transform="translate(0.000000,1158.000000) scale(0.100000,-0.100000)"
fill="#000000" stroke="none">
<path d="M4809 11497 c-118 -88 -509 -372 -794 -579 -291 -210 -979 -710
-1348 -979 -169 -123 -351 -255 -405 -293 -53 -38 -203 -146 -332 -240 -129
-95 -302 -221 -385 -281 -82 -60 -247 -179 -365 -265 -354 -258 -543 -395
-553 -401 -5 -4 61 -220 146 -480 86 -261 206 -629 267 -819 61 -190 127 -390
145 -445 19 -55 75 -228 125 -385 50 -157 109 -337 130 -400 21 -63 85 -257
140 -430 56 -173 171 -526 255 -785 84 -258 173 -533 198 -610 87 -272 198
-611 213 -653 l16 -42 2649 2 2650 3 45 135 c24 74 148 455 275 845 127 391
300 922 384 1180 84 259 190 585 235 725 45 140 135 417 200 615 65 198 162
495 215 660 53 165 139 430 192 590 87 265 94 290 78 300 -10 5 -38 26 -64 45
-47 37 -826 603 -864 630 -12 8 -105 75 -207 149 -102 74 -225 164 -275 199
-49 36 -171 124 -270 197 -99 72 -263 192 -365 265 -193 140 -522 379 -876
637 -115 84 -389 282 -609 442 -220 159 -404 294 -410 298 -5 5 -32 24 -60 43
-27 19 -101 71 -163 117 -62 46 -113 83 -115 82 -1 0 -45 -33 -98 -72z m569
-558 c251 -182 480 -348 507 -369 28 -20 127 -92 220 -160 94 -68 184 -134
200 -147 17 -12 224 -162 460 -333 237 -170 484 -350 550 -398 198 -146 1209
-881 1361 -989 119 -85 229 -166 243 -178 1 -2 -31 -106 -72 -232 -42 -125
-127 -388 -191 -583 -63 -195 -180 -557 -261 -805 -81 -247 -178 -549 -216
-670 -39 -121 -124 -384 -190 -585 -66 -201 -141 -432 -168 -515 -27 -82 -83
-253 -124 -380 -67 -204 -258 -794 -291 -900 l-13 -40 -2480 -3 -2481 -2 -101
307 c-101 311 -407 1252 -638 1963 -268 830 -639 1970 -724 2224 -55 169 -66
212 -56 224 6 8 44 38 84 66 71 51 593 430 793 576 58 42 206 150 330 240 124
90 266 194 315 230 50 36 126 92 170 124 44 31 154 111 245 177 91 65 235 170
320 231 85 61 313 227 505 368 193 141 366 267 385 280 39 27 468 339 690 502
80 59 151 108 158 108 6 0 218 -149 470 -331z"/>
<path d="M4720 11012 c-96 -71 -391 -285 -655 -477 -264 -191 -529 -384 -590
-428 -60 -44 -603 -438 -1205 -875 -1296 -941 -1200 -870 -1200 -883 0 -11 57
-189 405 -1259 106 -327 309 -950 450 -1385 141 -434 329 -1010 417 -1280 88
-269 167 -514 176 -542 l15 -53 680 2 c661 2 680 3 705 22 14 11 89 93 166
182 160 183 370 486 485 699 89 166 265 572 321 740 49 149 73 180 165 214
136 51 378 3 619 -122 l86 -44 22 71 c25 81 29 202 9 276 -22 77 -70 164 -128
228 l-55 62 44 20 c133 58 323 28 560 -91 64 -32 99 -45 104 -38 10 17 -5 196
-22 263 -34 134 -120 265 -229 349 l-53 41 19 38 c19 38 38 158 25 158 -4 0
-36 -25 -69 -55 -34 -30 -97 -73 -139 -96 -76 -39 -96 -59 -60 -59 29 0 114
-45 170 -89 85 -68 168 -192 221 -332 12 -29 19 -54 17 -56 -1 -2 -23 8 -47
21 -126 70 -295 99 -450 77 -82 -12 -233 -57 -287 -85 l-26 -14 34 -28 c182
-153 266 -282 284 -434 10 -85 1 -89 -85 -42 -149 82 -354 131 -489 117 -275
-27 -510 -189 -703 -486 -60 -92 -131 -223 -164 -304 -19 -47 -26 -54 -114
-104 -355 -202 -568 -486 -569 -755 0 -103 5 -102 -106 -25 -206 143 -381 324
-456 472 -33 67 -68 192 -68 247 0 64 -58 204 -134 325 -18 28 -35 55 -39 61
-3 6 33 42 83 83 238 192 432 492 553 851 54 160 70 258 64 375 -5 114 -46
282 -103 428 -63 162 -62 156 -25 232 51 104 123 189 303 360 199 189 474 398
740 564 324 202 444 298 688 547 221 226 331 396 409 629 77 230 72 467 -14
661 -29 66 -23 64 86 -29 140 -120 237 -277 285 -462 48 -184 34 -439 -37
-675 -57 -194 -165 -430 -267 -589 -23 -35 -42 -69 -42 -76 0 -13 103 -9 130
5 20 11 131 209 161 287 28 74 10 74 217 -3 274 -102 514 -235 757 -420 215
-162 420 -356 543 -512 38 -47 38 -48 -11 -27 -59 24 -169 36 -243 26 -36 -6
-68 -12 -71 -15 -3 -3 38 -51 92 -108 67 -71 137 -163 227 -297 111 -165 142
-221 213 -381 83 -186 129 -323 166 -494 25 -111 49 -276 49 -335 l0 -44 -53
104 c-145 286 -347 498 -555 582 -73 30 -74 19 -2 -58 223 -241 380 -628 500
-1235 23 -113 42 -209 44 -215 3 -10 94 264 456 1380 105 325 291 895 412
1267 121 372 218 683 215 690 -4 11 -711 531 -1317 967 -176 128 -1260 915
-1425 1036 -99 72 -277 201 -395 287 -118 85 -318 230 -445 323 -126 93 -239
170 -250 172 -13 2 -78 -39 -195 -125z m-62 -1456 c186 -279 187 -658 2 -1027
-71 -141 -80 -150 -186 -214 -92 -54 -344 -222 -459 -304 -27 -20 -45 -29 -40
-21 5 8 48 74 96 145 115 172 174 276 274 480 172 347 256 642 259 902 0 62 2
113 3 113 1 0 24 -33 51 -74z"/>
<path d="M4369 7328 c-120 -187 -280 -414 -369 -523 -33 -42 -65 -86 -70 -98
-5 -12 -23 -85 -40 -161 -35 -156 -33 -145 -31 -168 1 -22 21 -24 21 -3 0 24
60 154 103 222 46 74 88 113 165 152 115 59 166 145 182 310 8 90 16 116 66
234 82 191 85 197 81 197 -2 0 -50 -73 -108 -162z"/>
<path d="M1400 2822 c0 -5 -108 -250 -241 -544 -133 -293 -243 -539 -246 -545
-4 -10 15 -13 74 -13 l79 0 60 135 59 135 225 -3 224 -2 60 -132 61 -133 77 0
c43 0 78 1 78 3 0 7 -497 1098 -503 1104 -4 3 -7 1 -7 -5z m90 -518 c41 -92
77 -170 78 -175 2 -5 -69 -9 -158 -9 -150 0 -162 1 -155 18 21 57 150 332 154
332 3 0 40 -75 81 -166z"/>
<path d="M4540 2283 c-135 -299 -246 -548 -248 -553 -2 -6 28 -10 75 -10 l78
0 60 135 60 135 224 -2 224 -3 60 -132 60 -133 79 0 78 0 -14 33 c-24 56 -477
1051 -484 1063 -4 6 -117 -233 -252 -533z m331 15 l78 -173 -156 -3 c-86 -1
-158 -1 -160 2 -6 5 150 355 156 350 2 -2 39 -82 82 -176z"/>
<path d="M6687 2282 c-136 -301 -247 -551 -247 -555 0 -4 34 -7 77 -5 l76 3
60 133 60 132 222 0 222 0 61 -132 60 -133 82 -3 c75 -3 80 -2 72 15 -5 10
-119 259 -252 553 -134 294 -244 536 -245 537 0 2 -112 -244 -248 -545z m347
-19 l65 -143 -164 0 -163 0 81 181 82 182 17 -39 c9 -21 46 -103 82 -181z"/>
<path d="M8810 2278 l0 -558 80 0 80 0 0 371 0 372 272 -279 c150 -153 325
-333 390 -399 l118 -120 0 558 0 557 -75 0 -75 0 0 -377 0 -378 -287 295
c-158 162 -336 345 -395 405 l-108 110 0 -557z"/>
<path d="M3250 2273 l0 -553 75 0 75 0 0 373 0 372 143 -145 c78 -80 254 -259
390 -398 l247 -253 0 556 0 555 -75 0 -75 0 0 -375 0 -376 -222 228 c-122 125
-298 305 -390 398 l-168 170 0 -552z"/>
<path d="M70 2250 l0 -530 75 0 75 0 2 255 3 255 230 -254 230 -255 99 0 98
-1 -80 88 c-302 331 -432 476 -432 482 0 4 110 112 245 241 134 129 245 237
245 242 0 4 -44 7 -99 7 l-98 0 -219 -210 -219 -211 -3 211 -2 210 -75 0 -75
0 0 -530z"/>
<path d="M2060 2250 l0 -530 75 0 75 0 2 215 c2 133 7 216 13 218 5 1 77 -96
158 -215 l148 -218 85 0 c65 0 83 3 78 13 -4 6 -72 107 -151 224 -79 116 -143
213 -143 216 0 2 19 10 43 17 134 40 219 133 234 259 16 136 -73 259 -224 310
-53 18 -86 21 -228 21 l-165 0 0 -530z m306 387 c34 -7 73 -21 88 -30 35 -23
66 -87 66 -137 0 -105 -81 -167 -229 -177 l-81 -6 0 182 0 181 48 0 c26 0 75
-6 108 -13z"/>
<path d="M2880 2250 l0 -530 75 0 75 0 0 530 0 530 -75 0 -75 0 0 -530z"/>
<path d="M5900 2250 l0 -530 250 0 250 0 0 75 0 75 -170 0 -170 0 0 455 0 455
-80 0 -80 0 0 -530z"/>
<path d="M7343 2768 c25 -63 470 -1065 476 -1070 5 -6 453 973 487 1065 5 15
-2 17 -72 17 l-79 0 -99 -223 c-55 -122 -130 -288 -166 -369 l-66 -147 -164
369 -163 370 -79 0 c-60 0 -79 -3 -75 -12z"/>
<path d="M8450 2250 l0 -530 75 0 75 0 0 530 0 530 -75 0 -75 0 0 -530z"/>
<path d="M4 1397 c-2 -7 -3 -60 -2 -118 l3 -104 4905 0 4905 0 0 115 0 115
-4903 3 c-4051 2 -4903 0 -4908 -11z"/>
<path d="M3295 757 c-109 -37 -200 -113 -243 -205 -24 -50 -27 -69 -27 -162 0
-94 3 -111 27 -160 71 -145 192 -220 353 -220 113 1 205 34 281 104 l46 41
-32 23 -31 23 -36 -32 c-21 -18 -61 -43 -91 -56 -46 -22 -64 -24 -140 -21
-100 4 -157 26 -215 85 -60 59 -81 115 -82 208 0 128 51 216 160 273 44 23 62
27 145 27 109 0 163 -20 222 -81 l34 -34 32 23 32 24 -42 43 c-24 24 -72 57
-108 74 -55 25 -79 31 -155 33 -55 2 -105 -2 -130 -10z"/>
<path d="M4103 756 c-192 -62 -306 -262 -260 -452 29 -117 106 -211 216 -263
49 -22 69 -26 156 -26 93 0 105 2 167 33 152 75 235 236 209 403 -20 123 -96
226 -208 281 -56 27 -78 32 -152 35 -54 2 -102 -2 -128 -11z m233 -90 c112
-52 166 -132 172 -254 2 -40 -1 -93 -8 -116 -17 -63 -76 -134 -140 -170 -50
-28 -63 -31 -145 -31 -100 0 -134 12 -203 71 -62 52 -94 127 -94 216 -1 128
55 223 164 277 80 41 176 43 254 7z"/>
<path d="M5719 756 c-101 -27 -198 -107 -244 -199 -39 -81 -46 -197 -15 -286
59 -175 203 -270 393 -259 107 7 183 36 249 97 l51 47 -31 23 -32 23 -46 -40
c-57 -51 -118 -72 -209 -72 -93 0 -153 21 -214 76 -67 60 -95 126 -95 224 1
121 55 214 158 268 45 24 62 27 151 27 95 0 103 -2 157 -33 32 -18 66 -44 77
-58 l20 -25 30 22 30 22 -21 30 c-28 39 -111 91 -178 111 -63 19 -166 20 -231
2z"/>
<path d="M5001 733 c-11 -21 -249 -527 -297 -630 l-33 -73 43 0 43 0 54 115
53 115 157 0 156 0 53 -115 54 -115 43 0 44 0 -14 28 c-7 15 -83 177 -168 359
-85 183 -159 333 -166 333 -7 0 -16 -8 -22 -17z m81 -270 l55 -118 -110 -3
c-60 -1 -112 0 -115 2 -5 6 100 235 109 236 3 0 31 -53 61 -117z"/>
<path d="M6280 390 l0 -360 40 0 40 0 0 170 0 170 180 0 180 0 0 -170 0 -170
40 0 40 0 0 360 0 360 -40 0 -40 0 0 -150 0 -150 -177 2 -178 3 -3 148 -3 147
-39 0 -40 0 0 -360z"/>
</g>
</svg>
