<?xml version="1.0" standalone="no"?>
<!DOCTYPE svg PUBLIC "-//W3C//DTD SVG 20010904//EN"
 "http://www.w3.org/TR/2001/REC-SVG-20010904/DTD/svg10.dtd">
<svg version="1.0" xmlns="http://www.w3.org/2000/svg"
 width="982.000000pt" height="1158.000000pt" viewBox="0 0 982.000000 1158.000000"
 preserveAspectRatio="xMidYMid meet">

<g transform="translate(0.000000,1158.000000) scale(0.100000,-0.100000)"
fill="#ff0000" stroke="none">
<path d="M4660 11388 c-276 -203 -325 -238 -1185 -862 -341 -247 -728 -528
-860 -625 -132 -96 -319 -232 -415 -301 -151 -109 -335 -242 -697 -505 -45
-33 -200 -145 -344 -250 -466 -339 -541 -395 -536 -409 9 -22 292 -890 407
-1246 61 -190 129 -397 150 -460 21 -63 80 -243 130 -400 50 -157 109 -337
130 -400 22 -63 85 -257 140 -430 56 -173 168 -520 250 -770 177 -543 323
-995 383 -1180 l43 -135 2653 0 2653 0 38 115 c63 194 527 1621 605 1860 171
523 217 667 290 895 42 132 134 416 205 630 71 215 170 518 220 675 50 157
134 415 187 574 82 250 93 290 80 298 -9 5 -38 25 -64 45 -42 32 -622 453
-1212 881 -111 81 -273 199 -360 263 -86 63 -235 172 -331 241 -96 68 -377
272 -625 453 -247 180 -531 387 -630 459 -99 71 -214 155 -256 185 -155 114
-394 287 -428 311 -115 80 -352 253 -357 261 -3 5 -8 9 -12 8 -4 0 -117 -82
-252 -181z m682 -424 c233 -169 457 -332 499 -363 42 -31 123 -90 180 -131 57
-41 154 -111 214 -155 61 -45 301 -220 535 -389 234 -169 479 -346 545 -395
103 -76 1003 -729 1445 -1049 80 -58 149 -108 153 -112 5 -4 -50 -187 -122
-406 -212 -650 -513 -1580 -601 -1854 -44 -140 -130 -403 -190 -585 -59 -181
-133 -409 -164 -505 -32 -96 -136 -418 -232 -715 -96 -297 -183 -565 -193
-595 l-18 -55 -2480 -3 -2481 -2 -101 307 c-249 763 -433 1329 -475 1458 -48
151 -229 708 -413 1275 -313 962 -420 1291 -479 1469 -51 157 -61 197 -51 209
6 8 44 38 84 66 81 58 635 460 793 576 58 42 209 152 335 244 127 91 276 200
332 242 57 41 183 132 280 202 98 70 232 167 298 215 66 49 192 140 280 204
88 64 252 184 365 266 113 83 252 184 310 226 147 105 586 425 760 553 80 59
151 108 157 108 7 0 203 -138 435 -306z"/>
<path d="M4655 10964 c-132 -97 -301 -220 -375 -273 -74 -54 -193 -140 -265
-193 -71 -52 -245 -178 -385 -280 -723 -523 -2509 -1821 -2535 -1842 l-30 -23
108 -334 c60 -184 193 -595 297 -914 104 -319 306 -942 450 -1385 144 -443
334 -1025 422 -1295 88 -269 167 -514 176 -542 l15 -53 677 0 677 0 28 22 c15
12 91 95 169 183 160 183 370 486 485 700 89 165 265 571 320 737 23 70 51
138 62 152 54 68 203 101 345 77 102 -18 267 -76 371 -131 l93 -48 19 61 c28
91 33 154 21 232 -14 94 -76 219 -141 286 -48 49 -50 54 -33 66 60 44 229 50
360 14 45 -13 137 -49 203 -82 101 -48 123 -56 128 -43 10 26 -14 235 -32 289
-47 136 -134 259 -231 326 l-44 30 20 39 c20 40 39 160 26 160 -4 0 -36 -25
-69 -55 -34 -30 -97 -73 -139 -96 -76 -39 -96 -59 -60 -59 29 0 114 -45 170
-89 85 -68 168 -192 221 -332 12 -29 19 -54 18 -56 -2 -1 -35 13 -73 32 -108
54 -181 70 -319 69 -129 0 -249 -25 -365 -77 l-55 -24 34 -29 c142 -119 218
-214 258 -324 25 -67 36 -139 28 -173 l-7 -26 -47 29 c-138 85 -301 132 -461
132 -227 1 -414 -83 -591 -264 -116 -120 -244 -315 -318 -485 l-38 -88 -87
-50 c-206 -118 -386 -279 -467 -416 -72 -121 -101 -210 -107 -327 -4 -82 -8
-102 -18 -98 -36 14 -171 114 -277 206 -125 107 -214 215 -269 323 -33 67 -68
192 -68 247 0 59 -63 216 -120 300 -9 14 -26 41 -38 61 l-22 36 80 62 c235
185 436 491 559 849 76 220 88 363 47 542 -30 131 -70 256 -107 339 -16 35
-29 74 -29 87 0 31 59 141 114 213 25 33 119 130 209 215 231 222 452 390 783
597 278 173 384 258 610 483 267 267 369 419 453 671 77 229 72 466 -14 659
-31 69 -24 67 86 -27 140 -120 237 -277 285 -462 35 -133 37 -346 6 -503 -51
-250 -148 -495 -293 -733 -33 -53 -59 -101 -59 -106 0 -11 107 -5 130 7 20 11
131 209 161 287 20 53 27 62 44 57 175 -49 507 -200 695 -315 217 -134 489
-358 664 -548 120 -131 157 -177 131 -167 -64 27 -120 37 -201 37 -87 0 -144
-7 -144 -18 0 -3 43 -51 96 -106 66 -70 137 -163 226 -296 111 -165 142 -221
213 -381 83 -186 129 -323 166 -494 25 -112 49 -277 49 -336 l0 -45 -57 113
c-102 198 -232 362 -378 473 -57 44 -155 99 -202 113 -34 11 -29 -14 8 -50 48
-44 141 -172 197 -271 139 -244 237 -547 326 -1003 20 -102 38 -189 40 -195 3
-10 90 253 461 1395 108 333 294 903 412 1267 119 364 213 668 211 675 -3 7
-257 196 -564 419 -308 223 -633 460 -724 526 -91 66 -406 295 -700 508 -294
214 -641 465 -770 560 -741 540 -1062 770 -1078 772 -9 2 -125 -77 -257 -173z
m3 -1408 c193 -288 187 -669 -16 -1061 -50 -96 -63 -114 -105 -140 -26 -16
-165 -107 -307 -201 -143 -94 -257 -166 -253 -160 3 6 30 45 58 86 154 223
342 570 424 784 94 244 143 467 145 654 0 61 2 112 3 112 1 0 24 -33 51 -74z"/>
<path d="M4334 7273 c-113 -173 -272 -395 -371 -518 -27 -33 -38 -66 -68 -195
-20 -85 -37 -157 -37 -160 0 -3 0 -13 1 -22 1 -23 21 -23 21 0 0 32 107 236
149 283 23 27 69 61 108 82 128 67 178 149 192 315 8 91 14 112 75 252 36 85
64 155 62 157 -2 2 -61 -85 -132 -194z"/>
<path d="M4540 2283 c-135 -299 -246 -548 -248 -554 -2 -5 30 -9 75 -9 l78 0
60 135 60 135 224 -2 224 -3 60 -132 60 -133 79 0 78 0 -14 33 c-24 57 -477
1051 -484 1063 -4 6 -117 -234 -252 -533z m330 16 l79 -174 -156 -3 c-86 -1
-158 -1 -160 2 -5 5 150 355 155 351 1 -1 38 -80 82 -176z"/>
<path d="M6688 2283 c-137 -302 -248 -552 -248 -556 0 -4 34 -7 77 -5 l76 3
60 133 60 132 222 0 222 0 61 -132 60 -133 80 -3 80 -3 -240 528 c-132 290
-245 541 -251 556 -11 27 -25 -1 -259 -520z m346 -20 l65 -143 -164 0 -163 0
81 181 82 181 17 -38 c9 -22 46 -103 82 -181z"/>
<path d="M8810 2278 l0 -558 80 0 80 0 0 371 0 371 262 -268 c144 -148 320
-327 390 -399 l128 -130 0 558 0 557 -75 0 -75 0 0 -377 0 -378 -118 120 c-65
66 -243 248 -395 405 l-277 285 0 -557z"/>
<path d="M1159 2279 c-134 -298 -245 -546 -247 -550 -2 -5 32 -9 75 -9 l79 0
60 135 59 135 225 -3 224 -2 60 -132 61 -133 78 0 c59 0 78 3 74 13 -29 69
-490 1074 -496 1080 -4 4 -117 -237 -252 -534z m331 25 c41 -92 77 -170 78
-175 2 -5 -69 -9 -158 -9 -126 0 -161 3 -157 13 23 60 152 337 156 337 3 0 40
-75 81 -166z"/>
<path d="M3250 2273 l0 -553 75 0 75 0 0 373 0 372 133 -135 c73 -74 248 -253
390 -398 l257 -264 0 556 0 556 -75 0 -75 0 0 -376 0 -376 -232 238 c-128 132
-303 311 -390 399 l-158 160 0 -552z"/>
<path d="M70 2250 l0 -530 75 0 75 0 2 255 3 255 230 -254 230 -255 100 0 99
-1 -45 48 c-25 26 -137 148 -249 272 -112 124 -209 230 -216 236 -11 9 3 27
64 85 42 41 158 152 256 247 l179 172 -104 0 -105 0 -219 -210 -220 -211 -3
211 -2 210 -75 0 -75 0 0 -530z"/>
<path d="M2060 2251 l0 -531 75 0 75 0 2 215 c2 133 7 216 13 217 6 1 76 -95
156 -213 l146 -214 88 -3 c69 -2 85 0 79 10 -4 7 -72 108 -151 225 -79 116
-143 213 -143 216 0 3 15 9 33 12 87 19 184 96 221 175 27 59 29 179 3 231
-29 58 -95 119 -166 153 -65 31 -68 31 -248 34 l-183 4 0 -531z m343 378 c100
-27 146 -143 96 -240 -28 -56 -101 -89 -210 -96 l-79 -6 0 183 0 183 78 -7
c42 -3 94 -11 115 -17z"/>
<path d="M2880 2250 l0 -530 75 0 75 0 0 530 0 530 -75 0 -75 0 0 -530z"/>
<path d="M5900 2250 l0 -530 250 0 250 0 0 75 0 75 -170 0 -170 0 0 455 0 455
-80 0 -80 0 0 -530z"/>
<path d="M7343 2768 c26 -65 470 -1065 476 -1070 5 -6 453 974 487 1065 5 15
-2 17 -72 17 l-79 0 -75 -168 c-41 -92 -115 -258 -165 -369 l-92 -202 -163
369 -163 370 -80 0 c-59 0 -78 -3 -74 -12z"/>
<path d="M8450 2250 l0 -530 75 0 75 0 0 530 0 530 -75 0 -75 0 0 -530z"/>
<path d="M4 1397 c-2 -7 -3 -60 -2 -118 l3 -104 4905 0 4905 0 0 115 0 115
-4903 3 c-4051 2 -4903 0 -4908 -11z"/>
<path d="M3307 760 c-104 -27 -211 -114 -255 -208 -24 -50 -27 -69 -27 -162 0
-92 3 -112 26 -160 38 -80 99 -144 174 -181 147 -72 361 -41 469 70 l36 37
-30 22 -30 23 -48 -40 c-77 -65 -166 -88 -266 -70 -105 19 -183 76 -228 167
-31 65 -32 187 -2 253 50 108 140 169 260 177 98 6 168 -15 231 -73 l50 -44
31 23 32 23 -42 43 c-66 67 -151 102 -256 106 -48 2 -104 -1 -125 -6z"/>
<path d="M4125 761 c-67 -17 -128 -53 -178 -103 -186 -187 -136 -494 101 -610
62 -31 74 -33 167 -33 93 0 105 2 167 33 82 40 159 122 189 202 16 40 22 78
22 141 0 76 -3 94 -30 152 -66 140 -178 217 -327 223 -45 2 -94 0 -111 -5z
m222 -99 c106 -55 155 -132 161 -254 5 -104 -16 -167 -77 -228 -62 -62 -111
-83 -198 -88 -96 -5 -158 16 -222 76 -66 63 -93 125 -93 216 -1 141 70 244
201 293 53 20 175 12 228 -15z"/>
<path d="M5719 757 c-68 -20 -131 -60 -188 -122 -131 -144 -118 -380 28 -524
140 -138 416 -134 556 9 l37 37 -31 23 -31 22 -46 -41 c-115 -101 -307 -99
-422 4 -68 61 -96 127 -96 225 0 123 55 213 167 272 35 19 58 23 137 23 86 0
101 -3 153 -30 32 -16 69 -42 83 -58 l24 -28 29 22 c28 20 29 23 15 45 -22 33
-75 71 -140 101 -68 31 -202 41 -275 20z"/>
<path d="M5007 743 c-5 -9 -239 -503 -298 -630 l-38 -83 43 0 43 0 54 115 54
115 156 0 156 0 53 -115 54 -115 42 0 43 0 -43 93 c-226 487 -281 604 -289
615 -11 14 -24 16 -30 5z m75 -280 l55 -118 -110 -3 c-60 -1 -112 0 -115 2 -5
6 100 235 109 236 3 0 31 -53 61 -117z"/>
<path d="M6280 390 l0 -360 40 0 40 0 0 170 0 170 180 0 180 0 0 -170 0 -170
40 0 40 0 0 360 0 360 -40 0 -40 0 0 -150 0 -150 -177 2 -178 3 -3 148 -3 147
-39 0 -40 0 0 -360z"/>
</g>
</svg>
